<?xml version="1.0" encoding="utf-8"?>
<!-- Generator: Adobe Illustrator 24.2.1, SVG Export Plug-In . SVG Version: 6.00 Build 0)  -->
<svg version="1.1" id="Layer_1" xmlns="http://www.w3.org/2000/svg" xmlns:xlink="http://www.w3.org/1999/xlink" x="0px" y="0px"
	 viewBox="0 0 566.5 165.8" style="enable-background:new 0 0 566.5 165.8;" xml:space="preserve">
<style type="text/css">
	.st0{fill:url(#SVGID_1_);}
	.st1{fill:url(#SVGID_2_);}
	.st2{fill:url(#SVGID_3_);}
	.st3{fill:url(#SVGID_4_);}
	.st4{fill:url(#SVGID_5_);}
	.st5{fill:url(#SVGID_6_);}
	.st6{fill:url(#SVGID_7_);}
	.st7{fill:url(#SVGID_8_);}
	.st8{fill:url(#SVGID_9_);}
	.st9{fill:url(#SVGID_10_);}
	.st10{fill:url(#SVGID_11_);}
	.st11{fill:url(#SVGID_12_);}
	.st12{fill:#FFFFFF;}
	.st13{fill:#333333;}
	.st14{fill:#DEDEDE;}
	.st15{fill:#BFBFBF;}
	.st16{fill:#666666;}
	.st17{fill:url(#SVGID_13_);}
	.st18{fill:url(#SVGID_14_);}
	.st19{fill:url(#SVGID_15_);}
	.st20{fill:url(#SVGID_16_);}
	.st21{fill:url(#SVGID_17_);}
	.st22{fill:url(#SVGID_18_);}
	.st23{fill:url(#SVGID_19_);}
	.st24{fill:url(#SVGID_20_);}
	.st25{fill:url(#SVGID_21_);}
	.st26{fill:url(#SVGID_22_);}
	.st27{fill:url(#SVGID_23_);}
	.st28{fill:url(#SVGID_24_);}
	.st29{fill:url(#SVGID_25_);}
	.st30{fill:url(#SVGID_26_);}
	.st31{fill:url(#SVGID_27_);}
	.st32{fill:url(#SVGID_28_);}
	.st33{fill:url(#SVGID_29_);}
	.st34{fill:url(#SVGID_30_);}
</style>
<g>
	<g>
		<g>
			
				<linearGradient id="SVGID_1_" gradientUnits="userSpaceOnUse" x1="492.6161" y1="577.899" x2="540.9673" y2="577.899" gradientTransform="matrix(0 1 -1 0 660.9321 -433.8853)">
				<stop  offset="0" style="stop-color:#59BFFF"/>
				<stop  offset="1" style="stop-color:#1039B4"/>
			</linearGradient>
			<polygon class="st0" points="58.9,82.9 83,58.7 107.2,82.9 83,107.1 			"/>
			
				<linearGradient id="SVGID_2_" gradientUnits="userSpaceOnUse" x1="241.657" y1="-57.6814" x2="290.0082" y2="-57.6814" gradientTransform="matrix(1 0 0 1 -158.6233 164.764)">
				<stop  offset="0" style="stop-color:#73DDFF"/>
				<stop  offset="1" style="stop-color:#0180DD"/>
			</linearGradient>
			<polygon class="st1" points="107.2,131.3 83,107.1 107.2,82.9 131.4,107.1 			"/>
			
				<linearGradient id="SVGID_3_" gradientUnits="userSpaceOnUse" x1="1103.9863" y1="607.7853" x2="1152.3375" y2="607.7853" gradientTransform="matrix(-1 0 0 -1 1187.0192 714.8675)">
				<stop  offset="0" style="stop-color:#017EDD"/>
				<stop  offset="1" style="stop-color:#9DECFF"/>
			</linearGradient>
			<polygon class="st2" points="58.9,82.9 83,107.1 58.9,131.3 34.7,107.1 			"/>
		</g>
		<g>
			
				<linearGradient id="SVGID_4_" gradientUnits="userSpaceOnUse" x1="468.4405" y1="577.9" x2="516.7917" y2="577.9" gradientTransform="matrix(0 1 -1 0 660.9321 -433.8853)">
				<stop  offset="0.3" style="stop-color:#FFD315"/>
				<stop  offset="0.3822" style="stop-color:#FFCD1E"/>
				<stop  offset="0.5162" style="stop-color:#FFBD36"/>
				<stop  offset="0.6855" style="stop-color:#FFA35E"/>
				<stop  offset="0.8815" style="stop-color:#FF7F94"/>
				<stop  offset="1" style="stop-color:#FF67B9"/>
			</linearGradient>
			<polygon class="st3" points="58.9,58.7 83,34.6 107.2,58.7 83,82.9 			"/>
			
				<linearGradient id="SVGID_5_" gradientUnits="userSpaceOnUse" x1="241.656" y1="-81.857" x2="290.0072" y2="-81.857" gradientTransform="matrix(1 0 0 1 -158.6233 164.764)">
				<stop  offset="0" style="stop-color:#FF00B1"/>
				<stop  offset="0.1409" style="stop-color:#F600B2"/>
				<stop  offset="0.3708" style="stop-color:#DE00B5"/>
				<stop  offset="0.6609" style="stop-color:#B600BA"/>
				<stop  offset="0.9971" style="stop-color:#7F00C1"/>
				<stop  offset="1" style="stop-color:#7F00C1"/>
			</linearGradient>
			<polygon class="st4" points="107.2,107.1 83,82.9 107.2,58.7 131.4,82.9 			"/>
			
				<linearGradient id="SVGID_6_" gradientUnits="userSpaceOnUse" x1="1103.9874" y1="631.9609" x2="1152.3386" y2="631.9609" gradientTransform="matrix(-1 0 0 -1 1187.0192 714.8675)">
				<stop  offset="0" style="stop-color:#FF00B1"/>
				<stop  offset="0.1409" style="stop-color:#F600B2"/>
				<stop  offset="0.3708" style="stop-color:#DE00B5"/>
				<stop  offset="0.6609" style="stop-color:#B600BA"/>
				<stop  offset="0.9971" style="stop-color:#7F00C1"/>
				<stop  offset="1" style="stop-color:#7F00C1"/>
			</linearGradient>
			<polygon class="st5" points="58.9,58.7 83,82.9 58.9,107.1 34.7,82.9 			"/>
		</g>
	</g>
	<path d="M237.4,68.7c0.9,1.6,2.1,2.8,3.6,3.7c1.6,0.9,3.4,1.3,5.5,1.3c1.7,0,3.3-0.4,4.8-1.1c1.5-0.7,2.8-1.8,3.8-3.1
		c1.1-1.3,1.9-2.8,2.5-4.6c0.6-1.8,0.9-3.7,0.9-5.8c0-2-0.3-3.9-1-5.7c-0.7-1.8-1.6-3.3-2.7-4.6c-1.2-1.3-2.5-2.3-4.1-3.1
		c-1.6-0.7-3.3-1.1-5.2-1.1c-2.1,0-4,0.5-5.5,1.3c-1.5,0.9-2.8,2.1-3.9,3.7v-4.5h-7.4v39.3h8.5V68.7z M237.4,55.8
		c0.6-1.2,1.4-2.1,2.5-2.8c1.1-0.7,2.2-1,3.4-1c1,0,1.9,0.2,2.7,0.5c0.8,0.4,1.5,0.8,2.1,1.5c0.6,0.6,1,1.4,1.4,2.3
		c0.3,0.9,0.5,1.8,0.5,2.8c0,1-0.2,1.9-0.5,2.8c-0.3,0.9-0.7,1.7-1.3,2.4c-0.6,0.7-1.2,1.2-2,1.6c-0.8,0.4-1.6,0.6-2.5,0.6
		c-1.3,0-2.5-0.5-3.7-1.4c-1.2-1-2-2.1-2.6-3.6V55.8z"/>
	<path d="M272,56.4c0.7-1.3,1.9-2.2,3.6-2.9c1.7-0.6,3.5-1,5.6-1v-7.7c-0.2,0-0.4-0.1-0.5-0.1h-0.9c-1.7,0-3.3,0.6-4.8,1.7
		c-1.5,1.1-2.7,2.5-3.7,4.4v-5.6h-7.8v27.9h8.5V56.4z"/>
	<path d="M286,71.2c0.8,0.8,1.9,1.4,3.1,1.9c1.2,0.4,2.5,0.7,3.9,0.7c1.9,0,3.7-0.4,5.4-1.3c1.7-0.9,3.2-2.1,4.4-3.7l0.2,1.3
		c0.2,1.1,0.7,2,1.5,2.6c0.8,0.6,2,0.9,3.6,0.9c0.5,0,1,0,1.7-0.1c0.6-0.1,1.3-0.2,2-0.4V66c-0.7-0.1-1.1-0.3-1.4-0.6
		c-0.3-0.3-0.4-0.9-0.4-1.8v-7.2c0-3.8-1.2-6.7-3.5-8.7c-2.3-2-5.6-3-9.8-3c-2.2,0-4.4,0.3-6.3,0.9c-2,0.6-3.9,1.5-5.7,2.7l2.5,5.3
		c1.5-1,3-1.8,4.4-2.3c1.4-0.5,2.8-0.8,4.4-0.8c3.7,0,5.6,1.6,5.6,4.8v1.3c-0.8-0.4-1.8-0.7-2.9-0.9c-1.1-0.2-2.2-0.3-3.4-0.3
		c-1.8,0-3.4,0.2-4.8,0.7c-1.5,0.5-2.7,1.1-3.8,1.9c-1.1,0.8-1.9,1.8-2.5,2.9c-0.6,1.1-0.9,2.4-0.9,3.8c0,1.3,0.2,2.5,0.7,3.5
		C284.5,69.5,285.1,70.4,286,71.2z M292.8,61.3c1-0.7,2.3-1.1,3.9-1.1c0.7,0,1.5,0.1,2.4,0.2c0.9,0.2,1.7,0.4,2.4,0.7v2.7
		c0,0.7-0.4,1.4-1.2,2c-0.6,0.5-1.3,1-2.2,1.3c-0.9,0.3-1.8,0.5-2.7,0.5c-1.2,0-2.2-0.3-3-1c-0.8-0.7-1.2-1.5-1.2-2.5
		C291.3,63,291.8,62,292.8,61.3z"/>
	<polygon points="454.4,45.3 445.3,45.3 435.9,56.9 435.9,34.4 427.4,34.4 427.4,73.2 435.9,73.2 435.9,65.1 438.9,62 446.2,73.2 
		455.2,73.2 444.3,57.3 	"/>
	<rect x="458.5" y="45.3" width="8.5" height="27.9"/>
	<path d="M221.3,49.1c-1.3-1.3-2.8-2.4-4.7-3.2c-1.8-0.8-3.9-1.2-6.3-1.2c-2.4,0-4.5,0.4-6.4,1.2c-1.9,0.8-3.4,1.9-4.7,3.2
		c-1.3,1.3-2.2,2.9-2.9,4.6c-0.6,1.8-1,3.6-1,5.5c0,1.9,0.3,3.7,1,5.5c0.7,1.8,1.6,3.3,2.9,4.6c1.3,1.3,2.8,2.4,4.7,3.2
		c1.9,0.8,4,1.2,6.4,1.2c2.4,0,4.5-0.4,6.4-1.2c1.9-0.8,3.4-1.8,4.7-3.2c1.3-1.3,2.2-2.9,2.9-4.6c0.7-1.8,1-3.6,1-5.5
		c0-1.9-0.3-3.8-1-5.5C223.5,52,222.5,50.5,221.3,49.1z M216,62.2c-0.3,0.9-0.8,1.7-1.3,2.3c-0.6,0.6-1.2,1.1-1.9,1.5
		c-0.7,0.4-1.6,0.5-2.4,0.5c-1.8,0-3.3-0.7-4.5-2c-1.2-1.3-1.8-3.1-1.8-5.3c0-1.1,0.2-2,0.5-3c0.3-0.9,0.7-1.7,1.3-2.3
		c0.6-0.6,1.2-1.1,2-1.5c0.8-0.4,1.6-0.5,2.5-0.5c1.8,0,3.2,0.7,4.4,2c1.2,1.3,1.8,3.1,1.8,5.3C216.4,60.3,216.3,61.3,216,62.2z"/>
	<path d="M524.9,45.3v4.6c-1-1.6-2.2-2.8-3.8-3.8s-3.4-1.4-5.6-1.4c-1.9,0-3.7,0.4-5.3,1.1c-1.6,0.7-3,1.8-4.1,3.1
		c-1.1,1.3-2,2.8-2.7,4.6c-0.6,1.8-1,3.7-1,5.7c0,1.9,0.3,3.8,0.9,5.5c0.6,1.7,1.4,3.2,2.5,4.5c1.1,1.3,2.4,2.3,3.9,3
		c1.5,0.7,3.2,1.1,5.1,1.1c1.8,0,3.6-0.4,5.2-1.2c1.6-0.8,2.8-2,3.7-3.5v2.7c0,1.3-0.2,2.4-0.6,3.4c-0.4,0.9-1,1.7-1.7,2.3
		c-0.7,0.6-1.5,1-2.5,1.3c-0.9,0.3-1.9,0.4-2.9,0.4c-1.7,0-3.4-0.3-4.9-1c-1.5-0.7-2.8-1.6-3.8-2.8l-4.6,4.6
		c1.6,1.8,3.5,3.2,5.6,4.1c2.1,1,4.7,1.4,7.7,1.4c2.4,0,4.6-0.3,6.5-1c2-0.6,3.7-1.5,5.1-2.7c1.4-1.2,2.5-2.6,3.3-4.3
		c0.8-1.7,1.2-3.6,1.2-5.7v-26H524.9z M523.8,62.7c-0.6,1.1-1.4,2.1-2.4,2.8c-1,0.7-2.2,1.1-3.5,1.1c-1,0-1.8-0.2-2.6-0.5
		c-0.8-0.3-1.5-0.8-2.1-1.5c-0.6-0.6-1.1-1.4-1.4-2.3c-0.3-0.9-0.5-1.8-0.5-2.8c0-1,0.1-1.9,0.4-2.8c0.3-0.9,0.7-1.7,1.3-2.4
		c0.6-0.7,1.2-1.2,2-1.6c0.8-0.4,1.6-0.6,2.5-0.6c1.3,0,2.6,0.4,3.7,1.3c1.2,0.9,2,2,2.6,3.5V62.7z"/>
	<rect x="458.6" y="34.4" width="8.5" height="7.7"/>
	<path d="M392.5,106.2c-1.3-1.3-2.8-2.4-4.7-3.2c-1.8-0.8-3.9-1.2-6.3-1.2c-2.4,0-4.5,0.4-6.4,1.2c-1.9,0.8-3.4,1.8-4.7,3.2
		c-1.3,1.3-2.3,2.9-2.9,4.7c-0.7,1.8-1,3.7-1,5.7c0,1.9,0.3,3.7,1,5.4c0.7,1.7,1.7,3.2,2.9,4.5c1.3,1.3,2.9,2.4,4.7,3.1
		c1.9,0.8,4,1.1,6.3,1.1c3.2,0,6-0.7,8.3-2.1c2.3-1.4,4-3.2,5.1-5.4l-7.2-2c-0.4,1-1.2,1.8-2.3,2.5c-1.2,0.6-2.3,0.9-3.6,0.9
		c-1.6,0-3-0.5-4.2-1.5c-1.2-1-1.9-2.4-2-4.3h20.6c0.1-0.4,0.1-0.8,0.2-1.3c0-0.5,0.1-1,0.1-1.5c0-1.9-0.3-3.7-1-5.5
		C394.7,109.1,393.7,107.5,392.5,106.2z M375.3,113.7c0.2-1.7,0.8-3.1,1.9-4.2c1.1-1,2.5-1.6,4.1-1.6c1.6,0,3,0.5,4.1,1.5
		c1.1,1,1.7,2.4,1.9,4.2H375.3z"/>
	<path d="M497.8,48.3c-0.6-1.1-1.5-1.9-2.6-2.6c-1.1-0.6-2.6-1-4.4-1c-2.5,0-4.6,0.5-6.5,1.4c-1.9,0.9-3.3,2.2-4.4,3.9v-4.7h-7.7
		v27.9h8.5v-16c0.2-0.7,0.6-1.4,1-2c0.4-0.6,0.9-1.1,1.5-1.6c0.6-0.4,1.2-0.8,1.8-1c0.6-0.2,1.2-0.4,1.8-0.4c1.1,0,2,0.4,2.7,1.3
		c0.7,0.8,1,2.2,1,4v15.7h8.5V55.3c0-1.2-0.1-2.4-0.3-3.6C498.8,50.5,498.4,49.3,497.8,48.3z"/>
	<path d="M364.9,71.2c0.9,0.8,1.9,1.4,3.1,1.9c1.2,0.4,2.5,0.7,3.9,0.7c1.9,0,3.7-0.4,5.5-1.3c1.7-0.9,3.2-2.1,4.4-3.7l0.2,1.3
		c0.2,1.1,0.7,2,1.5,2.6c0.8,0.6,2,0.9,3.6,0.9c0.5,0,1.1,0,1.7-0.1c0.6-0.1,1.3-0.2,2-0.4V66c-0.7-0.1-1.1-0.3-1.4-0.6
		c-0.3-0.3-0.4-0.9-0.4-1.8v-7.2c0-3.8-1.2-6.7-3.5-8.7c-2.3-2-5.6-3-9.8-3c-2.2,0-4.3,0.3-6.3,0.9c-2,0.6-3.9,1.5-5.7,2.7l2.5,5.3
		c1.5-1,3-1.8,4.4-2.3c1.4-0.5,2.8-0.8,4.4-0.8c3.7,0,5.6,1.6,5.6,4.8v1.3c-0.8-0.4-1.8-0.7-2.9-0.9c-1.1-0.2-2.2-0.3-3.4-0.3
		c-1.8,0-3.4,0.2-4.8,0.7c-1.5,0.5-2.7,1.1-3.8,1.9c-1.1,0.8-1.9,1.8-2.5,2.9c-0.6,1.1-0.9,2.4-0.9,3.8c0,1.3,0.2,2.5,0.7,3.5
		C363.4,69.5,364.1,70.4,364.9,71.2z M371.7,61.3c1-0.7,2.3-1.1,3.9-1.1c0.7,0,1.5,0.1,2.4,0.2c0.9,0.2,1.7,0.4,2.4,0.7v2.7
		c0,0.7-0.4,1.4-1.2,2c-0.6,0.5-1.3,1-2.1,1.3c-0.9,0.3-1.8,0.5-2.7,0.5c-1.2,0-2.2-0.3-3-1c-0.8-0.7-1.2-1.5-1.2-2.5
		C370.2,63,370.7,62,371.7,61.3z"/>
	<path d="M420.6,48.3c-0.6-1.1-1.4-1.9-2.6-2.6c-1.1-0.6-2.6-1-4.4-1c-2.4,0-4.6,0.5-6.5,1.4c-1.9,0.9-3.3,2.2-4.4,3.9v-4.7h-7.7
		v27.9h8.5v-16c0.2-0.7,0.6-1.4,1-2c0.4-0.6,0.9-1.1,1.5-1.6c0.6-0.4,1.2-0.8,1.8-1c0.6-0.2,1.2-0.4,1.8-0.4c1.1,0,2,0.4,2.7,1.3
		c0.7,0.8,1,2.2,1,4v15.7h8.5V55.3c0-1.2-0.1-2.4-0.3-3.6C421.6,50.5,421.2,49.3,420.6,48.3z"/>
	<path d="M261.9,123.7c-0.7,0-1.3-0.2-1.8-0.6c-0.5-0.4-0.7-1.1-0.7-2v-10.4h5.8l-0.2-6.6h-5.6v-8.2h-8.4v8.2h-11.4v-3
		c0-2.3,0.7-3.9,3.2-3.9c1.2,0,3.3,0.7,3.7,0.8l1.4-6c-2-0.8-5.1-1.6-6.9-1.6c-1.5,0-2.8,0.3-4,0.8c-1.2,0.5-2.2,1.3-3.1,2.3
		c-0.9,1-1.5,2.2-2,3.6c-0.5,1.4-0.7,3.4-0.7,5.1v1.9h-4l0.2,6.6h3.8v20.2h8.4v-20.2h11.4v13.3c0,3.6,1.7,7.4,7.9,7.4
		c3.1,0,7.1-1.9,8.4-2.8l-1.4-5.6C265.4,123.4,263.4,123.7,261.9,123.7z"/>
	<path d="M363.8,102c-1.7,0-3.3,0.6-4.8,1.7c-1.5,1.1-2.7,2.5-3.7,4.4v-5.6h-7.8v27.9h8.5v-16.8c0.7-1.3,1.9-2.2,3.6-2.9
		c1.7-0.6,3.5-1,5.6-1V102c-0.2,0-0.3-0.1-0.5-0.1H363.8z"/>
	<path d="M340.6,120.7v-7.2c0-3.8-1.2-6.7-3.5-8.7c-2.3-2-5.6-3-9.8-3c-2.2,0-4.3,0.3-6.3,0.9c-2,0.6-3.9,1.5-5.7,2.7l2.5,5.3
		c1.5-1,3-1.8,4.4-2.3c1.4-0.5,2.8-0.8,4.4-0.8c3.7,0,5.6,1.6,5.6,4.8v1.3c-0.8-0.4-1.8-0.7-2.9-0.9c-1.1-0.2-2.2-0.3-3.4-0.3
		c-1.8,0-3.4,0.2-4.8,0.7s-2.7,1.1-3.8,1.9c-1.1,0.8-1.9,1.8-2.5,2.9c-0.6,1.1-0.9,2.4-0.9,3.8c0,1.3,0.3,2.5,0.7,3.5
		c0.5,1.1,1.2,2,2,2.8c0.9,0.8,1.9,1.4,3.1,1.9c1.2,0.4,2.5,0.7,3.9,0.7c1.9,0,3.7-0.4,5.5-1.3c1.7-0.9,3.2-2.1,4.4-3.7l0.2,1.3
		c0.2,1.1,0.7,2,1.5,2.6c0.8,0.6,2,0.9,3.6,0.9c0.5,0,1,0,1.6-0.1c0.6-0.1,1.3-0.2,2-0.4v-7.2c-0.7-0.1-1.1-0.3-1.4-0.6
		C340.8,122.2,340.6,121.6,340.6,120.7z M332.1,121c0,0.7-0.4,1.4-1.2,2c-0.6,0.5-1.3,1-2.1,1.3c-0.9,0.3-1.8,0.5-2.7,0.5
		c-1.2,0-2.2-0.3-3-1c-0.8-0.7-1.2-1.5-1.2-2.5c0-1.1,0.5-2.1,1.5-2.8c1-0.7,2.3-1.1,3.9-1.1c0.7,0,1.6,0.1,2.4,0.2
		c0.9,0.2,1.7,0.4,2.4,0.7V121z"/>
	<path d="M191.1,57.1c-0.3-0.6-0.7-1.2-1.3-1.8c-0.6-0.6-1.1-1.1-1.6-1.4c-0.5-0.4-1.1-0.8-1.9-1.2c-0.8-0.4-1.4-0.8-1.9-1
		c-0.5-0.2-1.1-0.5-2-0.9c-0.8-0.4-1.8-0.8-2.9-1.3c-1.1-0.5-2.1-1.1-2.9-1.8c-0.8-0.6-1.3-1.4-1.3-2.4c0-1,0.3-1.7,0.8-2.1
		c0.6-0.4,1.5-0.6,2.6-0.6c2.8,0,6.4,0.4,10.6,1.2l0.2,0l1.4-7.2l-0.2-0.1c-2.2-0.6-4.2-1-6-1.3c-1.8-0.3-3.5-0.4-5.1-0.4
		c-4.2,0-7.6,1-9.9,3c-2.3,2-3.5,4.7-3.5,8c0,3.3,1.3,6,3.7,7.9c1,0.8,2.5,1.7,4.7,2.7c2.1,1,3.6,1.7,4.4,2.1
		c0.4,0.2,0.8,0.4,1.4,0.7c0.5,0.3,0.9,0.5,1.2,0.7c0.3,0.2,0.6,0.5,1,0.9c0.4,0.4,0.6,0.9,0.6,1.6c0,1.6-0.3,2.6-1,3
		c-0.7,0.4-1.5,0.7-2.5,0.7c-3.6,0-7.6-0.9-11.9-2.6l-0.2-0.1l-0.1,0.3c-0.9,3-1.5,4.9-1.7,5.5c-0.2,0.5-0.3,0.8-0.4,1.1l-0.1,0.2
		l1.9,0.9c1.2,0.6,2.9,1.1,5,1.7c2.2,0.6,4.3,0.8,6.3,0.8c4,0,7.3-1.1,9.8-3.2c2.5-2.2,3.8-5,3.8-8.5
		C192.2,60.3,191.9,58.6,191.1,57.1z"/>
	<path d="M221.3,106.8c-1.3-1.3-2.8-2.4-4.7-3.2c-1.8-0.8-3.9-1.2-6.3-1.2c-2.4,0-4.5,0.4-6.4,1.2c-1.9,0.8-3.4,1.9-4.7,3.2
		c-1.3,1.3-2.2,2.9-2.9,4.6c-0.6,1.8-1,3.6-1,5.5c0,1.9,0.3,3.7,1,5.5c0.7,1.8,1.6,3.3,2.9,4.6c1.3,1.3,2.8,2.4,4.7,3.2
		c1.9,0.8,4,1.2,6.4,1.2c2.4,0,4.5-0.4,6.4-1.2c1.9-0.8,3.4-1.8,4.7-3.2c1.3-1.3,2.2-2.9,2.9-4.6c0.7-1.8,1-3.6,1-5.5
		c0-1.9-0.3-3.8-1-5.5C223.5,109.7,222.5,108.1,221.3,106.8z M216,119.9c-0.3,0.9-0.8,1.7-1.3,2.3c-0.6,0.6-1.2,1.1-1.9,1.5
		c-0.7,0.4-1.6,0.5-2.4,0.5c-1.8,0-3.3-0.7-4.5-2c-1.2-1.3-1.8-3.1-1.8-5.3c0-1.1,0.2-2,0.5-3c0.3-0.9,0.7-1.7,1.3-2.3
		c0.6-0.6,1.2-1.1,2-1.5c0.8-0.4,1.6-0.5,2.5-0.5c1.8,0,3.2,0.7,4.4,2c1.2,1.3,1.8,3.1,1.8,5.3C216.4,118,216.3,119,216,119.9z"/>
	<path d="M191.1,114.7c-0.3-0.6-0.7-1.2-1.3-1.8c-0.6-0.6-1.1-1.1-1.6-1.4c-0.5-0.4-1.1-0.8-1.9-1.2c-0.8-0.4-1.4-0.8-1.9-1
		c-0.5-0.2-1.1-0.5-2-0.9c-0.8-0.4-1.8-0.8-2.9-1.3c-1.1-0.5-2.1-1.1-2.9-1.8c-0.8-0.6-1.3-1.4-1.3-2.4c0-1,0.3-1.7,0.8-2.1
		c0.6-0.4,1.5-0.6,2.6-0.6c2.8,0,6.4,0.4,10.6,1.2l0.2,0l1.4-7.2l-0.2-0.1c-2.2-0.6-4.2-1-6-1.3c-1.8-0.3-3.5-0.4-5.1-0.4
		c-4.2,0-7.6,1-9.9,3c-2.3,2-3.5,4.7-3.5,8c0,3.3,1.3,6,3.7,7.9c1,0.8,2.5,1.7,4.7,2.7c2.1,1,3.6,1.7,4.4,2.1
		c0.4,0.2,0.8,0.4,1.4,0.7c0.5,0.3,0.9,0.5,1.2,0.7c0.3,0.2,0.6,0.5,1,0.9c0.4,0.4,0.6,0.9,0.6,1.6c0,1.6-0.3,2.6-1,3
		c-0.7,0.4-1.5,0.7-2.5,0.7c-3.6,0-7.6-0.9-11.9-2.6l-0.2-0.1l-0.1,0.3c-0.9,3-1.5,4.9-1.7,5.5c-0.2,0.5-0.3,0.8-0.4,1.1l-0.1,0.2
		l1.9,0.9c1.2,0.6,2.9,1.1,5,1.7c2.2,0.6,4.3,0.8,6.3,0.8c4,0,7.3-1.1,9.8-3.2c2.5-2.2,3.8-5,3.8-8.5
		C192.2,118,191.9,116.3,191.1,114.7z"/>
	<polygon points="298.3,122.5 295.7,114.9 300.2,103.5 293.4,103.5 291.1,110.9 288.7,103.5 282,103.5 286.5,114.9 283.9,122.5 
		276.3,102.5 268.3,102.5 279.8,130.4 286.8,130.4 291.1,118.9 295.4,130.4 302.4,130.4 313.9,102.5 305.8,102.5 	"/>
	<path d="M358.4,61.7c0-3.8-1.8-6.5-5.5-8v-0.3c1.3-0.6,2.3-1.5,3.2-2.8c0.9-1.3,1.3-2.9,1.3-4.8c0-2.7-0.6-4.8-1.9-6.5
		c-0.1-0.1-0.2-0.2-0.2-0.3c-0.2-0.2-0.3-0.4-0.5-0.6c-0.2-0.2-0.4-0.4-0.6-0.6c0,0-0.1,0-0.1-0.1c-2.2-1.8-5.4-2.7-9.8-2.7
		c-3.7,0-8.5,0.2-14.1,0.6l0.3,20l-0.3,17.5c5.9,0.6,10.7,0.9,14.5,0.8c3.7,0,6.9-0.9,9.4-2.5c0.6-0.4,1.1-0.8,1.5-1.3
		C357.4,68.3,358.4,65.5,358.4,61.7z M349.3,62c0,1.9-0.3,3.2-0.9,4c-0.6,0.8-1.8,1.2-3.5,1.2c-1.7,0-4.2-0.1-6.4-0.3l-0.1-9.8h5.6
		c1.8,0,3.1,0.4,4,1.1C348.9,58.8,349.3,60.1,349.3,62z M347.6,49.6c-0.6,0.7-1.7,1-3.2,1h-6.1V42l5.7-0.2c1.6,0,2.8,0.3,3.5,1
		c0.7,0.7,1,1.8,1,3.4C348.5,47.8,348.2,48.9,347.6,49.6z"/>
</g>
</svg>
