<?xml version="1.0" encoding="utf-8"?>
<!-- Generator: Adobe Illustrator 24.2.1, SVG Export Plug-In . SVG Version: 6.00 Build 0)  -->
<svg version="1.1" id="Layer_1" xmlns="http://www.w3.org/2000/svg" xmlns:xlink="http://www.w3.org/1999/xlink" x="0px" y="0px"
	 viewBox="0 0 344.1 165.8" style="enable-background:new 0 0 344.1 165.8;" xml:space="preserve">
<style type="text/css">
	.st0{fill:url(#SVGID_1_);}
	.st1{fill:url(#SVGID_2_);}
	.st2{fill:url(#SVGID_3_);}
	.st3{fill:url(#SVGID_4_);}
	.st4{fill:url(#SVGID_5_);}
	.st5{fill:url(#SVGID_6_);}
	.st6{fill:url(#SVGID_7_);}
	.st7{fill:url(#SVGID_8_);}
	.st8{fill:url(#SVGID_9_);}
	.st9{fill:url(#SVGID_10_);}
	.st10{fill:url(#SVGID_11_);}
	.st11{fill:url(#SVGID_12_);}
	.st12{fill:#FFFFFF;}
	.st13{fill:#333333;}
	.st14{fill:#DEDEDE;}
	.st15{fill:#BFBFBF;}
	.st16{fill:#666666;}
	.st17{fill:url(#SVGID_13_);}
	.st18{fill:url(#SVGID_14_);}
	.st19{fill:url(#SVGID_15_);}
	.st20{fill:url(#SVGID_16_);}
	.st21{fill:url(#SVGID_17_);}
	.st22{fill:url(#SVGID_18_);}
	.st23{fill:url(#SVGID_19_);}
	.st24{fill:url(#SVGID_20_);}
	.st25{fill:url(#SVGID_21_);}
	.st26{fill:url(#SVGID_22_);}
	.st27{fill:url(#SVGID_23_);}
	.st28{fill:url(#SVGID_24_);}
	.st29{fill:url(#SVGID_25_);}
	.st30{fill:url(#SVGID_26_);}
	.st31{fill:url(#SVGID_27_);}
	.st32{fill:url(#SVGID_28_);}
	.st33{fill:url(#SVGID_29_);}
	.st34{fill:url(#SVGID_30_);}
</style>
<g>
	<path class="st12" d="M231.3,104.4c3.4,0.3,6.4,0.5,9,0.5c2.6,0,4.4-0.6,5.4-1.9c1-1.3,1.4-3.4,1.4-6.3c0-2.9-0.7-5-2.1-6.1
		c-1.4-1.1-3.4-1.7-6.1-1.7h-7.7L231.3,104.4z M231.1,78.6h8.5c2.4,0,4-0.5,4.9-1.6c0.9-1.1,1.3-2.9,1.3-5.5c0-2.6-0.5-4.4-1.6-5.4
		c-1-1-2.8-1.6-5.3-1.6l-7.9,0.3V78.6z M239.2,54.3c13.3,0,20,5.6,20,16.7c0,3.1-0.7,5.6-2,7.6c-1.3,2-3,3.5-4.9,4.5v0.5
		c5.6,2.4,8.4,6.6,8.4,12.7c0,7.3-2.2,12.5-6.6,15.5c-3.9,2.5-8.6,3.8-14.3,3.8c-5.7,0-13-0.5-21.9-1.6l0.4-27.1l-0.4-31.3
		C226.5,54.7,233.6,54.3,239.2,54.3"/>
	<path class="st12" d="M205.3,88.8c-0.5-1-1.2-2-2.1-2.9c-0.9-0.9-1.8-1.7-2.5-2.3c-0.7-0.6-1.7-1.3-3-1.9c-1.3-0.7-2.3-1.2-3-1.6
		c-0.7-0.4-1.8-0.9-3.2-1.4c-1.3-0.6-2.9-1.3-4.7-2.1c-1.7-0.8-3.3-1.7-4.7-2.8c-1.3-1-2-2.3-2-3.8c0-1.6,0.4-2.6,1.3-3.2
		c0.9-0.7,2.3-1,4.1-1c4.5,0,10.1,0.6,16.8,1.9l0.4,0.1l2.2-11.5l-0.3-0.1c-3.4-0.9-6.6-1.7-9.5-2.1c-2.9-0.4-5.6-0.7-8-0.7
		c-6.7,0-12,1.6-15.7,4.8c-3.7,3.2-5.6,7.4-5.6,12.7c0,5.3,2,9.5,5.9,12.6c1.5,1.2,4,2.7,7.4,4.3c3.4,1.6,5.7,2.7,7,3.3
		c0.6,0.3,1.3,0.6,2.2,1.1c0.8,0.4,1.4,0.8,1.9,1.2c0.4,0.3,1,0.8,1.7,1.5c0.6,0.6,0.9,1.4,0.9,2.5c0,2.5-0.5,4.1-1.6,4.7
		c-1.1,0.7-2.5,1-4,1c-5.7,0-12-1.4-18.8-4.1l-0.4-0.2l-0.1,0.4c-1.4,4.8-2.4,7.7-2.7,8.7c-0.3,0.7-0.5,1.3-0.6,1.8l-0.1,0.3
		l3.1,1.4c1.9,0.9,4.5,1.8,8,2.7c3.4,0.9,6.8,1.3,10,1.3c6.3,0,11.6-1.7,15.5-5.1c4-3.4,6-8,6-13.5
		C207.1,93.9,206.5,91.2,205.3,88.8"/>
	<path class="st12" d="M307.4,88.8c-0.5-1-1.2-2-2.1-2.9c-0.9-0.9-1.8-1.7-2.5-2.3c-0.7-0.6-1.7-1.3-3-1.9c-1.3-0.7-2.3-1.2-3-1.6
		c-0.7-0.4-1.8-0.9-3.2-1.4c-1.3-0.6-2.9-1.3-4.7-2.1c-1.7-0.8-3.3-1.7-4.7-2.8c-1.3-1-2-2.3-2-3.8c0-1.6,0.4-2.6,1.3-3.2
		c0.9-0.7,2.3-1,4.1-1c4.5,0,10.1,0.6,16.8,1.9l0.4,0.1l2.2-11.5l-0.3-0.1c-3.4-0.9-6.6-1.7-9.5-2.1c-2.9-0.4-5.6-0.7-8-0.7
		c-6.7,0-12,1.6-15.7,4.8c-3.7,3.2-5.6,7.4-5.6,12.7c0,5.3,2,9.5,5.9,12.6c1.5,1.2,4,2.7,7.4,4.3c3.4,1.6,5.7,2.7,7,3.3
		c0.6,0.3,1.3,0.6,2.2,1.1c0.8,0.4,1.4,0.8,1.9,1.2c0.4,0.3,1,0.8,1.7,1.5c0.6,0.6,0.9,1.4,0.9,2.5c0,2.5-0.5,4.1-1.6,4.7
		c-1.1,0.7-2.5,1-4,1c-5.7,0-12-1.4-18.8-4.1l-0.4-0.2l-0.1,0.4c-1.4,4.8-2.4,7.7-2.7,8.7c-0.3,0.7-0.5,1.3-0.6,1.8l-0.1,0.3
		l3.1,1.4c1.9,0.9,4.5,1.8,8,2.7c3.4,0.9,6.8,1.3,10,1.3c6.3,0,11.6-1.7,15.5-5.1c4-3.4,6-8,6-13.5
		C309.2,93.9,308.6,91.2,307.4,88.8"/>
</g>
<g>
	<g>
		
			<linearGradient id="SVGID_1_" gradientUnits="userSpaceOnUse" x1="1468.6014" y1="964.3705" x2="1516.9526" y2="964.3705" gradientTransform="matrix(0 1 -1 0 1047.4036 -1409.8707)">
			<stop  offset="0" style="stop-color:#59BFFF"/>
			<stop  offset="1" style="stop-color:#1039B4"/>
		</linearGradient>
		<polygon class="st0" points="58.9,82.9 83,58.7 107.2,82.9 83,107.1 		"/>
		
			<linearGradient id="SVGID_2_" gradientUnits="userSpaceOnUse" x1="241.657" y1="-57.6814" x2="290.0082" y2="-57.6814" gradientTransform="matrix(1 0 0 1 -158.6233 164.764)">
			<stop  offset="0" style="stop-color:#73DDFF"/>
			<stop  offset="1" style="stop-color:#0180DD"/>
		</linearGradient>
		<polygon class="st1" points="107.2,131.3 83,107.1 107.2,82.9 131.4,107.1 		"/>
		
			<linearGradient id="SVGID_3_" gradientUnits="userSpaceOnUse" x1="2466.4431" y1="18.2714" x2="2514.7944" y2="18.2714" gradientTransform="matrix(-1 0 0 -1 2549.4761 125.3536)">
			<stop  offset="0" style="stop-color:#017EDD"/>
			<stop  offset="1" style="stop-color:#9DECFF"/>
		</linearGradient>
		<polygon class="st2" points="58.9,82.9 83,107.1 58.9,131.3 34.7,107.1 		"/>
	</g>
	<g>
		
			<linearGradient id="SVGID_4_" gradientUnits="userSpaceOnUse" x1="1444.4259" y1="964.3715" x2="1492.777" y2="964.3715" gradientTransform="matrix(0 1 -1 0 1047.4036 -1409.8707)">
			<stop  offset="0.3" style="stop-color:#FFD315"/>
			<stop  offset="0.3822" style="stop-color:#FFCD1E"/>
			<stop  offset="0.5162" style="stop-color:#FFBD36"/>
			<stop  offset="0.6855" style="stop-color:#FFA35E"/>
			<stop  offset="0.8815" style="stop-color:#FF7F94"/>
			<stop  offset="1" style="stop-color:#FF67B9"/>
		</linearGradient>
		<polygon class="st3" points="58.9,58.7 83,34.6 107.2,58.7 83,82.9 		"/>
		
			<linearGradient id="SVGID_5_" gradientUnits="userSpaceOnUse" x1="241.656" y1="-81.857" x2="290.0072" y2="-81.857" gradientTransform="matrix(1 0 0 1 -158.6233 164.764)">
			<stop  offset="0" style="stop-color:#FF00B1"/>
			<stop  offset="0.1409" style="stop-color:#F600B2"/>
			<stop  offset="0.3708" style="stop-color:#DE00B5"/>
			<stop  offset="0.6609" style="stop-color:#B600BA"/>
			<stop  offset="0.9971" style="stop-color:#7F00C1"/>
			<stop  offset="1" style="stop-color:#7F00C1"/>
		</linearGradient>
		<polygon class="st4" points="107.2,107.1 83,82.9 107.2,58.7 131.4,82.9 		"/>
		
			<linearGradient id="SVGID_6_" gradientUnits="userSpaceOnUse" x1="2466.4441" y1="42.447" x2="2514.7954" y2="42.447" gradientTransform="matrix(-1 0 0 -1 2549.4761 125.3536)">
			<stop  offset="0" style="stop-color:#FF00B1"/>
			<stop  offset="0.1409" style="stop-color:#F600B2"/>
			<stop  offset="0.3708" style="stop-color:#DE00B5"/>
			<stop  offset="0.6609" style="stop-color:#B600BA"/>
			<stop  offset="0.9971" style="stop-color:#7F00C1"/>
			<stop  offset="1" style="stop-color:#7F00C1"/>
		</linearGradient>
		<polygon class="st5" points="58.9,58.7 83,82.9 58.9,107.1 34.7,82.9 		"/>
	</g>
</g>
</svg>
